# xmcd CD database file
#
# Track frame offsets:
#	187
#	17874
#	33379
#	44987
#	60517
#	75312
#	99209
#	114877
#	130822
#	150369
#
# Disc length: 2171 seconds
#
# Revision: 0
# Processed by: cddbd v1.5.1PL0 Copyright (c) Steve Scherf et al.
# Submitted via: CDex 1.51
#
DISCID=6e08790a
DTITLE=ペギー葉山 - あの青春の歌たち
DYEAR=1900
DGENRE=Pop
TTITLE0=去年の今頃は
TTITLE1=爪
TTITLE2=あいつ
TTITLE3=星をリザーブしたの
TTITLE4=とてもとても
TTITLE5=もみじ日記
TTITLE6=学生時代
TTITLE7=夏の終わり
TTITLE8=南国土佐を後にして
TTITLE9=おやすみなさい
EXTD=
EXTT0=
EXTT1=
EXTT2=
EXTT3=
EXTT4=
EXTT5=
EXTT6=
EXTT7=
EXTT8=
EXTT9=
PLAYORDER=
